# AST/ASF file generated using VICON BodyLanguage
# -----------------------------------------------
:version 1.10
:name VICON
:units
  mass 1.0
  length 0.45
  angle deg
:documentation
   .ast/.asf automatically generated from VICON data using
   VICON BodyBuilder and BodyLanguage model FoxedUp or BRILLIANT.MOD
:root
   order TX TY TZ RX RY RZ
   axis XYZ
   position 0 0 0  
   orientation 0 0 0 
:bonedata
  begin
     id 1 
     name lhipjoint
     direction 0.650112 -0.723553 0.232005 
     length 2.45805 
     axis 0 0 0  XYZ
  end
  begin
     id 2 
     name lfemur
     direction 0.34202 -0.939693 0  
     length 7.00073  
     axis 0 0 20  XYZ
    dof rx ry rz
    limits (-160.0 20.0)
           (-70.0 70.0)
           (-60.0 70.0)
  end
  begin
     id 3 
     name ltibia
     direction 0.34202 -0.939693 0   
     length 7.8748   
     axis 0 0 20   XYZ
    dof rx
    limits (-10.0 170.0)
  end
  begin
     id 4 
     name lfoot
     direction 0.0542825 -0.14914 0.987325   
     length 1.75978   
     axis -90 7.62852e-016 20   XYZ
    dof rx rz
    limits (-45.0 90.0)
           (-70.0 20.0)
  end
  begin
     id 5 
     name ltoes
     direction 1.53509e-011 -4.21906e-011 1   
     length 0.893912   
     axis -90 7.62852e-016 20   XYZ
    dof rx
    limits (-90.0 20.0)
  end
  begin
     id 6 
     name rhipjoint
     direction -0.637897 -0.733345 0.235145   
     length 2.42522  
     axis 0 0 0  XYZ 
  end
  begin
     id 7 
     name rfemur
     direction -0.34202 -0.939693 0   
     length 7.02549   
     axis 0 0 -20   XYZ
    dof rx ry rz
    limits (-160.0 20.0)
           (-70.0 70.0)
           (-70.0 60.0)
  end
  begin
     id 8 
     name rtibia
     direction -0.34202 -0.939693 0   
     length 7.71512   
     axis 0 0 -20   XYZ
    dof rx
    limits (-10.0 170.0)
 end
 begin
     id 9 
     name rfoot
     direction -0.0822618 -0.226012 0.970645   
     length 1.90014  
     axis -90 -7.62852e-016 -20   XYZ
    dof rx rz
    limits (-45.0 90.0)
           (-20.0 70.0)
  end
  begin
     id 10 
     name rtoes
     direction -1.53542e-011 -4.21872e-011 1   
     length 0.957341   
     axis -90 -7.62852e-016 -20   XYZ
    dof rx
    limits (-90.0 20.0)
  end
  begin
     id 11 
     name lowerback
     direction -0.0022947 0.999774 -0.0211557   
     length 1.89909   
     axis 0 0 0   XYZ
    dof rx ry rz
    limits (-20.0 45.0)
           (-30.0 30.0)
           (-30.0 30.0)
  end
  begin
     id 12 
     name upperback
     direction 0.0107737 0.998635 0.0511027   
     length 1.8853   
     axis 0 0 0   XYZ
    dof rx ry rz
    limits (-20.0 45.0)
           (-30.0 30.0)
           (-30.0 30.0)
  end
  begin
     id 13 
     name thorax
     direction 0.011824 0.998136 0.0598754   
     length 1.88911   
     axis 0 0 0   XYZ
    dof rx ry rz
    limits (-20.0 45.0)
           (-30.0 30.0)
           (-30.0 30.0)
  end
  begin
     id 14 
     name lowerneck
     direction -0.0685355 0.990319 0.120714   
     length 1.91222   
     axis 0 0 0   XYZ
    dof rx ry rz
    limits (-20.0 45.0)
           (-30.0 30.0)
           (-30.0 30.0)
  end
  begin
     id 15 
     name upperneck
     direction 0.0886204 0.955665 -0.280805   
     length 1.92526   
     axis 0 0 0   XYZ
    dof rx ry rz
    limits (-20.0 45.0)
           (-30.0 30.0)
           (-30.0 30.0)
  end
  begin
     id 16
     name head
     direction 0.0233423 0.993502 -0.111393  
     length 1.96056  
     axis 0 0 0   XYZ
    dof rx ry rz
    limits (-20.0 45.0)
           (-30.0 30.0)
           (-30.0 30.0)
  end
  begin
     id 17 
     name lclavicle
     direction 0.941873 0.32922 0.0670041  
     length 3.31705  
     axis 0 0 0   XYZ
    dof ry rz
    limits (-20.0 10.0)
           (0.0 20.0)
  end
  begin
     id 18 
     name lhumerus
     direction 1 -4.4898e-011 3.38707e-028   
     length 5.29277   
     axis 180 -30 -90   XYZ
    dof rx ry rz
    limits (-60.0 90.0)
           (-90.0 90.0)
           (-90.0 90.0)
  end
  begin
     id 19
     name lradius
     direction 1 -4.48952e-011 1.63213e-028   
     length 2.85226   
     axis 180 -30 -90   XYZ
    dof rx
    limits (-10.0 170.0)
  end
  begin
     id 20
     name lwrist
     direction 1 -4.49001e-011 1.27856e-027   
     length 1.42613   
     axis -1.61767e-015 90 90   XYZ
    dof ry
    limits (-180.0 0.0)
 end
  begin
     id 21 
     name lhand
     direction 1 -4.48976e-011 2.55931e-027   
     length 0.602097   
     axis -1.63363e-015 90 90   XYZ
    dof rx rz
    limits (-90.0 90.0)
           (-45.0 45.0)
  end
  begin
     id 22 
     name lfingers
     direction 1 -4.48986e-011 5.11684e-027   
     length 0.485426   
     axis -3.26723e-015 90 90   XYZ
    dof rx
    limits (0.0 90.0)
  end
  begin
     id 23
     name lthumb
     direction 0.707107 -6.34915e-011 0.707107   
     length 0.696978   
     axis -90 45 -2.25915e-014   XYZ
    dof rx rz
    limits (-45.0 45.0)
           (-45.0 45.0)
  end
  begin
     id 24 
     name rclavicle
     direction -0.939974 0.327078 0.0973096   
     length 3.10337  
     axis 0 0 0   XYZ 
    dof ry rz
    limits (-10.0 20.0)
           (-20.0 0.0)
  end
  begin
     id 25 
     name rhumerus
     direction -1 -4.48975e-011 1.83745e-027  
     length 5.13304   
     axis 180 30 90   XYZ
    dof rx ry rz
    limits (-90.0 60.0)
           (-90.0 90.0)
           (-90.0 90.0)
  end
  begin
     id 26 
     name rradius
     direction -1 -4.48977e-011 7.1775e-029   
     length 2.74305   
     axis 180 30 90   XYZ
    dof rx
    limits (-10.0 170.0)
  end
  begin
     id 27 
     name rwrist
     direction -1 -4.48977e-011 1.27963e-027   
     length 1.37152   
     axis -1.61767e-015 -90 -90   XYZ
    dof ry
    limits (-180.0 0.0)
  end
  begin
     id 28
     name rhand
     direction -1 -4.4888e-011 2.56782e-027   
     length 0.767976   
     axis -1.63363e-015 -90 -90   XYZ
    dof rx rz
    limits (-90.0 90.0)
           (-45.0 45.0)
  end
  begin
     id 29
     name rfingers
     direction -1 -4.48947e-011 5.12384e-027   
     length 0.619162   
     axis -3.26723e-015 -90 -90   XYZ
    dof rx
    limits (0.0 90.0)
  end
  begin
     id 30
     name rthumb
     direction -0.707107 -6.34857e-011 0.707107   
     length 0.888997   
     axis -90 -45 2.25915e-014   XYZ
    dof rx rz
    limits (-45.0 45.0)
           (-45.0 45.0)
  end
:hierarchy
  begin
    root lhipjoint rhipjoint lowerback
    lhipjoint lfemur
    lfemur ltibia
    ltibia lfoot
    lfoot ltoes
    rhipjoint rfemur
    rfemur rtibia
    rtibia rfoot
    rfoot rtoes
    lowerback upperback
    upperback thorax
    thorax lowerneck lclavicle rclavicle
    lowerneck upperneck
    upperneck head
    lclavicle lhumerus
    lhumerus lradius
    lradius lwrist
    lwrist lhand lthumb
    lhand lfingers
    rclavicle rhumerus
    rhumerus rradius
    rradius rwrist
    rwrist rhand rthumb
    rhand rfingers
  end

#!OML:ASF F:\VICON\USERDATA\INSTALL\rory3\rory3.ASF
:FULLY-SPECIFIED
:DEGREES
363
root 0.268032 17.3181 -0.658808 3.44497 1.32139 3.53172
lowerback 8.7401 -0.809035 3.05497
upperback 1.15581 -0.474497 7.62737
thorax -3.67039 -0.228426 6.34952
lowerneck 7.39311 -10.7301 -17.1144
upperneck -9.73102 -14.5195 22.6223
head -0.945189 -7.78244 9.93678
rclavicle 5.1684e-015 -1.30403e-013
rhumerus 88.0415 -19.4415 -69.0582
rradius 140.581
rwrist 23.2691
rhand 19.7879 4.72776
rfingers 7.12502
rthumb 44.3375 -19.0281
lclavicle 5.1684e-015 -1.30403e-013
lhumerus 91.0575 27.139 56.6053
lradius 140.884
lwrist -29.6564
lhand 15.1757 39.5371
lfingers 7.12502
lthumb 40.017 64.758
rfemur -9.41885 10.342 13.6341
rtibia 22.9961
rfoot -15.6906 -13.0679
rtoes -26.4861
lfemur -8.21896 -12.6407 -22.1285
ltibia 18.8558
lfoot -12.759 7.56295
ltoes -20.5906
364
root 0.25986 17.3171 -0.638525 3.34539 1.2932 3.47478
lowerback 8.46538 -0.797663 2.96508
upperback 1.11655 -0.491407 7.50881
thorax -3.55622 -0.236992 6.26729
lowerneck 7.58834 -10.7488 -17.3491
upperneck -9.81411 -14.5865 22.727
head -0.959526 -7.82436 10.0214
rclavicle -1.66979e-014 -6.99722e-014
rhumerus 88.1414 -19.6611 -69.0695
rradius 140.492
rwrist 22.9691
rhand 19.5979 4.64029
rfingers 7.12502
rthumb 44.1603 -19.1825
lclavicle -1.66979e-014 -6.99722e-014
lhumerus 91.1551 27.2927 56.8747
lradius 140.77
lwrist -29.457
lhand 15.0822 39.4615
lfingers 7.12502
lthumb 39.929 64.7089
rfemur -9.19732 10.3863 13.7588
rtibia 22.9341
rfoot -15.772 -12.9897
rtoes -26.3239
lfemur -7.98847 -12.646 -22.0781
ltibia 18.8182
lfoot -12.8529 7.6054
ltoes -20.9047
365
root 0.250926 17.3156 -0.619567 3.21369 1.29046 3.35426
lowerback 8.2594 -0.797527 2.92841
upperback 1.05062 -0.509152 7.41497
thorax -3.50867 -0.245864 6.18441
lowerneck 7.73735 -10.7633 -17.4051
upperneck -9.82798 -14.6436 22.5407
head -0.990786 -7.84945 9.97722
rclavicle 4.05521e-014 -3.81667e-014
rhumerus 88.2514 -19.7412 -68.9449
rradius 140.312
rwrist 22.6959
rhand 19.725 4.49697
rfingers 7.12502
rthumb 44.2788 -19.2811
lclavicle 4.05521e-014 -3.81667e-014
lhumerus 91.1645 27.388 57.132
lradius 140.732
lwrist -29.3145
lhand 15.2794 39.4067
lfingers 7.12502
lthumb 40.1146 64.5981
rfemur -8.92741 10.3521 13.9733
rtibia 22.8369
rfoot -15.8132 -12.9771
rtoes -26.6537
lfemur -7.74168 -12.6292 -21.9585
ltibia 18.7953
lfoot -12.9835 7.57168
ltoes -20.559
366
root 0.240598 17.3143 -0.600506 3.11061 1.30031 3.37634
lowerback 8.05841 -0.805942 2.73736
upperback 0.938853 -0.549017 7.28703
thorax -3.50868 -0.263239 6.15708
lowerneck 7.86188 -10.7893 -17.3611
upperneck -9.74728 -14.723 22.1494
head -1.01454 -7.87636 9.84302
rclavicle 2.94201e-014 -1.17681e-013
rhumerus 88.3376 -19.7401 -68.7267
rradius 140.069
rwrist 22.4495
rhand 19.9006 4.41457
rfingers 7.12502
rthumb 44.4424 -19.3013
lclavicle 2.94201e-014 -1.17681e-013
lhumerus 91.0527 27.4118 57.2188
lradius 140.683
lwrist -29.2364
lhand 15.3962 39.3067
lfingers 7.12502
lthumb 40.2245 64.4647
rfemur -8.66015 10.3866 14.0325
rtibia 22.6955
rfoot -15.7645 -13.079
rtoes -26.8121
lfemur -7.57494 -12.6331 -21.9849
ltibia 18.8269
lfoot -13.0719 7.63734
ltoes -21.154
367
root 0.232493 17.3117 -0.582847 3.02955 1.27678 3.34465
lowerback 7.87874 -0.819096 2.61945
upperback 0.835245 -0.586839 7.17019
thorax -3.51275 -0.280541 6.1001
lowerneck 7.92617 -10.8318 -17.2993
upperneck -9.72634 -14.8066 21.7791
head -1.04349 -7.90465 9.71146
rclavicle -2.90226e-014 -3.18055e-015
rhumerus 88.446 -19.6811 -68.6767
rradius 139.948
rwrist 22.1079
rhand 20.3779 4.53944
rfingers 7.12502
rthumb 44.8869 -19.0045
lclavicle -2.90226e-014 -3.18055e-015
lhumerus 90.9079 27.5016 57.1443
lradius 140.603
lwrist -29.225
lhand 15.4009 39.387
lfingers 7.12502
lthumb 40.2289 64.5435
rfemur -8.43976 10.4423 14.1275
rtibia 22.5029
rfoot -15.6242 -13.1802
rtoes -27.3548
lfemur -7.44938 -12.642 -21.9623
ltibia 18.8927
lfoot -13.1175 7.80233
ltoes -22.2044
368
root 0.22637 17.3077 -0.565662 2.90688 1.2958 3.21024
lowerback 7.76829 -0.838345 2.6496
upperback 0.748761 -0.614553 7.08637
thorax -3.53989 -0.29459 5.99447
lowerneck 7.93438 -10.9232 -17.3217
upperneck -9.68872 -14.9583 21.4761
head -1.03178 -7.96484 9.60449
rclavicle 3.57812e-015 -6.36111e-015
rhumerus 88.582 -19.6634 -68.583
rradius 139.845
rwrist 21.9127
rhand 20.9401 4.548
rfingers 7.12502
rthumb 45.4098 -18.7883
lclavicle 3.57812e-015 -6.36111e-015
lhumerus 90.7688 27.6071 57.1279
lradius 140.54
lwrist -29.2251
lhand 15.4008 39.5066
lfingers 7.12502
lthumb 40.2288 64.6632
rfemur -8.13035 10.4421 14.3306
rtibia 22.2873
rfoot -15.5998 -13.1282
rtoes -27.3429
lfemur -7.26436 -12.6719 -21.8254
ltibia 18.9525
lfoot -13.3336 7.67669
ltoes -20.8248
